<svg xmlns="http://www.w3.org/2000/svg" xml:space="preserve" viewBox="0 0 47.5 47.5" enable-background="new 0 0 47.5 47.5" id="Email">
  <defs>
    <clipPath id="a">
      <path d="M0 38h38V0H0v38Z" fill="#0e0e0e" class="color000000 svgShape"></path>
    </clipPath>
  </defs>
  <g clip-path="url(#a)" transform="matrix(1.25 0 0 -1.25 0 47.5)" fill="#0e0e0e" class="color000000 svgShape">
    <path d="M0 0a4 4 0 0 0-4-4h-28a4 4 0 0 0-4 4v18a4 4 0 0 0 4 4h28a4 4 0 0 0 4-4V0Z" transform="translate(37 10)" fill="#d4d4d4" fill-opacity="1" fill-rule="nonzero" stroke="none" class="colorccd6dd svgShape"></path>
    <path d="m0 0-11.313-11.313c-.027-.028-.037-.063-.06-.091a3.987 3.987 0 0 1 1.384-1.384c.029.023.063.033.09.059L1.415-1.414A1 1 0 0 1 0 0" transform="translate(12.95 19.364)" fill="#a7a7a7" fill-opacity="1" fill-rule="nonzero" stroke="none" class="color99aab5 svgShape"></path>
    <path d="M0 0c-.021.028-.033.063-.06.09l-11.312 11.314a1 1 0 1 1-1.415-1.414L-1.474-1.324c.027-.027.062-.037.09-.06A3.97 3.97 0 0 1 0 0" transform="translate(36.423 7.96)" fill="#a7a7a7" fill-opacity="1" fill-rule="nonzero" stroke="none" class="color99aab5 svgShape"></path>
    <path d="M0 0h-28a4 4 0 0 1-4-4v-1.03l14.528-14.495a4.88 4.88 0 0 1 6.884 0L4-5.009V-4a4 4 0 0 1-4 4" transform="translate(33 32)" fill="#a7a7a7" fill-opacity="1" fill-rule="nonzero" stroke="none" class="color99aab5 svgShape"></path>
    <path d="M0 0h-28a3.992 3.992 0 0 1-3.595-2.275l14.766-14.767a4 4 0 0 1 5.657 0L3.595-2.275A3.991 3.991 0 0 1 0 0" transform="translate(33 32)" fill="#e7e7e7" fill-opacity="1" fill-rule="nonzero" stroke="none" class="colore1e8ed svgShape"></path>
    <path d="M0 0c0 .73.365 1.27 1 1.27h3.62c.839 0 1.174-.49 1.174-1 0-.496-.349-1-1.035-1H2.051v-2h2.533c.716 0 1.065-.489 1.065-1 0-.496-.366-1-1.065-1H2.051v-2h2.84c.699 0 1.037-.489 1.037-1 0-.496-.353-1-1.037-1H1.125C.482-8.73 0-8.199 0-7.542V0Z" transform="translate(16 27.73)" fill="#727272" fill-opacity="1" fill-rule="nonzero" stroke="none" class="color66757f svgShape"></path>
  </g>
</svg>
