<?xml version="1.0" encoding="UTF-8"?>
<svg version="1.1" xmlns="http://www.w3.org/2000/svg" width="165" height="165">
<path d="M0 0 C3.36296003 1.77308965 5.27568972 3.60242809 7 7 C7.77415154 11.12343217 7.94249465 14.90043738 7 19 C4.95703125 21.36328125 4.95703125 21.36328125 3 23 C4.0209375 23.86625 4.0209375 23.86625 5.0625 24.75 C7 27 7 27 6.8515625 28.99609375 C5.76706343 31.54814891 4.77643581 32.09695833 2.3125 33.3125 C1.64863281 33.65925781 0.98476562 34.00601563 0.30078125 34.36328125 C-5.69069422 36.0213636 -10.93725593 32.81030723 -16.125 30.125 C-17.17880859 29.59712891 -17.17880859 29.59712891 -18.25390625 29.05859375 C-20.19046525 28.07384068 -22.0967693 27.04736695 -24 26 C-25.22589844 25.35224609 -25.22589844 25.35224609 -26.4765625 24.69140625 C-28.93474184 21.96219688 -28.38074674 19.37534869 -28.25 15.8125 C-28.21390625 14.54019531 -28.1778125 13.26789062 -28.140625 11.95703125 C-28.09421875 10.98121094 -28.0478125 10.00539063 -28 9 C-8.3093551 -2.6343318 -8.3093551 -2.6343318 0 0 Z M-22 11 C-19.17911349 15.66531231 -16.26557643 18.5178968 -12 22 C-11.12394555 23.04452647 -10.2692063 24.10732799 -9.4375 25.1875 C-6.98473384 28.01761479 -5.64135861 29.23339819 -2 30 C-1.01 29.34 -0.02 28.68 1 28 C0.00102287 25.00306862 -0.65130253 23.97290587 -3 22 C-3.66 22 -4.32 22 -5 22 C-5 21.34 -5 20.68 -5 20 C-5.66 19.34 -6.32 18.68 -7 18 C-6.51789063 17.69707031 -6.03578125 17.39414062 -5.5390625 17.08203125 C-1.63056363 14.48965955 0.77751371 12.75411335 2 8 C0.37599733 6.04807371 -0.59234032 5.09811213 -3.09375 4.49609375 C-10.6564269 4.31193766 -15.70891446 6.98135981 -22 11 Z " fill="#FBFBFB" transform="translate(93,46)"/>
<path d="M0 0 C0.845625 0.309375 1.69125 0.61875 2.5625 0.9375 C6.81653144 2.25238244 10.58856864 2.17645725 15 2 C15.33 1.34 15.66 0.68 16 0 C17.32 0.33 18.64 0.66 20 1 C20 1.66 20 2.32 20 3 C21.60875 2.7215625 21.60875 2.7215625 23.25 2.4375 C26.40391546 2.0695432 28.09818492 1.95534657 31 3 C31 2.34 31 1.68 31 1 C32.98 1 34.96 1 37 1 C37 1.66 37 2.32 37 3 C38.4540625 2.7525 38.4540625 2.7525 39.9375 2.5 C44.26556336 1.88044083 48.63569972 1.68157466 53 2 C54 3 54 3 54.125 5.5 C54 8 54 8 53 9 C51.33394172 9.0450286 49.66621616 9.03874921 48 9 C46.68 9 45.36 9 44 9 C33.33333333 9 22.66666667 9 12 9 C12 9.66 12 10.32 12 11 C11.34 11 10.68 11 10 11 C9.34 10.34 8.68 9.68 8 9 C7.34 9 6.68 9 6 9 C6 9.66 6 10.32 6 11 C5.34 11 4.68 11 4 11 C3.34 10.01 2.68 9.02 2 8 C-0.58380177 7.74969023 -0.58380177 7.74969023 -3 8 C-2.74438677 5.6568787 -2.40729228 3.32156597 -2 1 C-1.34 0.67 -0.68 0.34 0 0 Z " fill="#F7F7F7" transform="translate(73,106)"/>
<path d="M0 0 C0.86625 0.495 0.86625 0.495 1.75 1 C6.38158014 3.05848006 10.47333372 1.50888876 15 0 C15 0.66 15 1.32 15 2 C17.38564077 1.42415568 19.66682784 0.77772405 22 0 C24.59645243 1.0548088 26.65463612 2.43642408 29 4 C28.67 5.32 28.34 6.64 28 8 C25.14152758 8.81393517 22.59761568 9.12830714 19.62890625 9.1328125 C18.80712891 9.13410156 17.98535156 9.13539062 17.13867188 9.13671875 C16.28853516 9.13285156 15.43839844 9.12898438 14.5625 9.125 C13.2930957 9.13080078 13.2930957 9.13080078 11.99804688 9.13671875 C7.87054048 9.13025437 4.02459894 9.041272 0 8 C-0.38063221 5.6739143 -0.71269945 3.33944736 -1 1 C-0.67 0.67 -0.34 0.34 0 0 Z " fill="#F7F7F7" transform="translate(38,106)"/>
<path d="M0 0 C3.155625 0.2784375 3.155625 0.2784375 6.375 0.5625 C6.375 5.5125 6.375 10.4625 6.375 15.5625 C0.24732474 14.33696495 -0.10681521 13.28691958 -3.625 8.5625 C-3.955 10.8725 -4.285 13.1825 -4.625 15.5625 C-5.945 15.5625 -7.265 15.5625 -8.625 15.5625 C-8.625 10.6125 -8.625 5.6625 -8.625 0.5625 C-5.68113377 -0.90943312 -3.25109964 -0.28686173 0 0 Z M0.375 3.5625 C0.375 4.8825 0.375 6.2025 0.375 7.5625 C1.035 7.8925 1.695 8.2225 2.375 8.5625 C2.375 6.9125 2.375 5.2625 2.375 3.5625 C1.715 3.5625 1.055 3.5625 0.375 3.5625 Z " fill="#FBFBFB" transform="translate(91.625,85.4375)"/>
<path d="M0 0 C7.2 -0.36 7.2 -0.36 10.5 1.125 C12.64945323 3.81181653 12.34274009 5.64114713 12 9 C11.6937566 10.33981486 11.36548445 11.67511887 11 13 C11 13.99 11 14.98 11 16 C9.68 15.67 8.36 15.34 7 15 C6.67 13.68 6.34 12.36 6 11 C5.01 11 4.02 11 3 11 C3 12.65 3 14.3 3 16 C1.68 16 0.36 16 -1 16 C-1.22281874 14.08496326 -1.42771076 12.16783494 -1.625 10.25 C-1.74101563 9.18265625 -1.85703125 8.1153125 -1.9765625 7.015625 C-2.00029475 3.96207601 -1.61420985 2.53837579 0 0 Z " fill="#FBFBFB" transform="translate(45,85)"/>
<path d="M0 0 C1.28132812 0.00902344 2.56265625 0.01804687 3.8828125 0.02734375 C4.87023437 0.03894531 5.85765625 0.05054687 6.875 0.0625 C7.875 3.0625 7.875 3.0625 6.546875 5.9453125 C5.91265625 7.01523438 5.2784375 8.08515625 4.625 9.1875 C4.00109375 10.26257813 3.3771875 11.33765625 2.734375 12.4453125 C0.875 15.0625 0.875 15.0625 -2.125 16.0625 C-3.29960192 14.12980041 -4.46444472 12.19116687 -5.625 10.25 C-6.2746875 9.17105469 -6.924375 8.09210938 -7.59375 6.98046875 C-9.125 4.0625 -9.125 4.0625 -9.125 1.0625 C-6.12186252 -0.43906874 -3.33432478 -0.03031204 0 0 Z M-3.125 5.0625 C-2.465 6.3825 -1.805 7.7025 -1.125 9.0625 C-0.465 8.7325 0.195 8.4025 0.875 8.0625 C0.875 7.0725 0.875 6.0825 0.875 5.0625 C-0.445 5.0625 -1.765 5.0625 -3.125 5.0625 Z " fill="#FBFBFB" transform="translate(130.125,84.9375)"/>
<path d="M0 0 C4.06124391 1.35374797 4.60315649 3.26258828 6.6875 6.9375 C7.31011719 8.01902344 7.93273437 9.10054687 8.57421875 10.21484375 C10 13 10 13 10 15 C4.06 15 -1.88 15 -8 15 C-6.865625 12.710625 -5.73125 10.42125 -4.5625 8.0625 C-4.20615479 7.34070557 -3.84980957 6.61891113 -3.48266602 5.87524414 C-1.11111111 1.11111111 -1.11111111 1.11111111 0 0 Z M1 7 C0.34 8.32 -0.32 9.64 -1 11 C1.475 11.495 1.475 11.495 4 12 C3.34 10.35 2.68 8.7 2 7 C1.67 7 1.34 7 1 7 Z " fill="#FBFBFB" transform="translate(69,86)"/>
<path d="M0 0 C0.66 0 1.32 0 2 0 C3.7265625 2.51953125 3.7265625 2.51953125 5.625 5.8125 C6.25664063 6.89144531 6.88828125 7.97039062 7.5390625 9.08203125 C9 12 9 12 9 15 C3.39 15 -2.22 15 -8 15 C-6.6025855 11.50646375 -5.25822028 8.4892516 -3.4375 5.25 C-2.78587891 4.08210938 -2.78587891 4.08210938 -2.12109375 2.890625 C-1 1 -1 1 0 0 Z M0 7 C-0.33 8.65 -0.66 10.3 -1 12 C0.32 12 1.64 12 3 12 C2.65213292 10.02463255 2.65213292 10.02463255 2 8 C1.34 7.67 0.68 7.34 0 7 Z " fill="#FBFBFB" transform="translate(110,86)"/>
<path d="M0 0 C7 0 7 0 9.4375 1.125 C11 3 11 3 11.375 6.0625 C11 9 11 9 9 11 C6.375 11.125 6.375 11.125 4 11 C4 12.65 4 14.3 4 16 C2.68 16 1.36 16 0 16 C0 10.72 0 5.44 0 0 Z M4 4 C4 5.32 4 6.64 4 8 C5.32 7.67 6.64 7.34 8 7 C7.34 6.01 6.68 5.02 6 4 C5.34 4 4.68 4 4 4 Z " fill="#FBFBFB" transform="translate(27,85)"/>
<path d="M0 0 C-0.33 1.32 -0.66 2.64 -1 4 C-4.77371512 5.3357457 -7.85831347 4.72408671 -11.75 4.0625 C-12.92046875 3.86785156 -14.0909375 3.67320313 -15.296875 3.47265625 C-16.63492188 3.23869141 -16.63492188 3.23869141 -18 3 C-17.67 2.01 -17.34 1.02 -17 0 C-16.01 0 -15.02 0 -14 0 C-14 0.66 -14 1.32 -14 2 C-13.01 1.34 -12.02 0.68 -11 0 C-6.54158282 -1.93844225 -4.34669121 -2.30118946 0 0 Z " fill="#F1F1F1" transform="translate(67,110)"/>
<path d="M0 0 C-1.98 0.66 -3.96 1.32 -6 2 C-6 2.66 -6 3.32 -6 4 C-8.97 4 -11.94 4 -15 4 C-15.33 2.68 -15.66 1.36 -16 0 C-16.66 -0.33 -17.32 -0.66 -18 -1 C-11.28161946 -2.24993126 -6.43709973 -2.14569991 0 0 Z " fill="#F4F4F4" transform="translate(120,111)"/>
<path d="M0 0 C0.53625 0.391875 1.0725 0.78375 1.625 1.1875 C1.625 2.1775 1.625 3.1675 1.625 4.1875 C-1.26334003 6.29520759 -2.75962395 7.1875 -6.375 7.1875 C-6.375 6.5275 -6.375 5.8675 -6.375 5.1875 C-7.035 5.1875 -7.695 5.1875 -8.375 5.1875 C-8.375 4.1975 -8.375 3.2075 -8.375 2.1875 C-2.95961538 -1.0125 -2.95961538 -1.0125 0 0 Z " fill="#FBFBFB" transform="translate(87.375,53.8125)"/>
<path d="M0 0 C1.485 0.99 1.485 0.99 3 2 C2 5 2 5 1 6 C3.31 6.33 5.62 6.66 8 7 C8.33 6.34 8.66 5.68 9 5 C11.97 5.99 14.94 6.98 18 8 C18 8.33 18 8.66 18 9 C15.93757383 9.02717692 13.87504297 9.0464758 11.8125 9.0625 C10.66394531 9.07410156 9.51539063 9.08570312 8.33203125 9.09765625 C5.40699414 9.01192832 2.83683709 8.67849023 0 8 C-0.38063221 5.6739143 -0.71269945 3.33944736 -1 1 C-0.67 0.67 -0.34 0.34 0 0 Z " fill="#F9F9F9" transform="translate(38,106)"/>
<path d="M0 0 C2.125 0.9375 2.125 0.9375 4 2 C3.95875 2.7425 3.9175 3.485 3.875 4.25 C4.00398134 7.08758952 4.57051222 8.58773938 6 11 C5.34 11 4.68 11 4 11 C3.34 10.01 2.68 9.02 2 8 C-0.58380177 7.74969023 -0.58380177 7.74969023 -3 8 C-2.74438677 5.6568787 -2.40729228 3.32156597 -2 1 C-1.34 0.67 -0.68 0.34 0 0 Z " fill="#F9F9F9" transform="translate(73,106)"/>
<path d="M0 0 C3.375 -0.125 3.375 -0.125 7 0 C7.66 0.66 8.32 1.32 9 2 C8.01 2.495 8.01 2.495 7 3 C7.33 3.66 7.66 4.32 8 5 C6.68 5 5.36 5 4 5 C3.67 6.32 3.34 7.64 3 9 C3 8.01 3 7.02 3 6 C2.34 6 1.68 6 1 6 C0.67 4.02 0.34 2.04 0 0 Z " fill="#F2F2F2" transform="translate(46,85)"/>
<path d="M0 0 C0.33 0.66 0.66 1.32 1 2 C1.66 2.33 2.32 2.66 3 3 C2 4 2 4 -0.3125 4.0625 C-1.199375 4.041875 -2.08625 4.02125 -3 4 C-4.32 4 -5.64 4 -7 4 C-7.99 3.34 -8.98 2.68 -10 2 C-3.375 -1.125 -3.375 -1.125 0 0 Z " fill="#FBFBFB" transform="translate(124,111)"/>
<path d="M0 0 C0 0.99 0 1.98 0 3 C-2.31 3.66 -4.62 4.32 -7 5 C-7.12375 4.360625 -7.2475 3.72125 -7.375 3.0625 C-7.684375 2.0415625 -7.684375 2.0415625 -8 1 C-8.66 0.67 -9.32 0.34 -10 0 C-6.33694766 -0.74926071 -3.57644848 -1.2380014 0 0 Z " fill="#EDEDED" transform="translate(112,110)"/>
<path d="M0 0 C0 0.66 0 1.32 0 2 C-2.97 2 -5.94 2 -9 2 C-9 1.01 -9 0.02 -9 -1 C-5.22102349 -2.0497157 -3.35080929 -2.10976881 0 0 Z " fill="#E0E0E0" transform="translate(65,111)"/>
<path d="M0 0 C2.00720923 0.28674418 4.0085944 0.61866701 6 1 C6 1.66 6 2.32 6 3 C3.69 3.33 1.38 3.66 -1 4 C-1 1 -1 1 0 0 Z " fill="#ECECEC" transform="translate(88,110)"/>
<path d="M0 0 C2.31 0 4.62 0 7 0 C7 0.99 7 1.98 7 3 C4.69 2.67 2.38 2.34 0 2 C0 1.34 0 0.68 0 0 Z " fill="#E8E8E8" transform="translate(39,110)"/>
</svg>
